<svg width="46" height="27" viewBox="0 0 46 27" fill="none" xmlns="http://www.w3.org/2000/svg">
<path fill-rule="evenodd" clip-rule="evenodd" d="M14.4465 21.6415C16.3987 19.8503 21.0706 13.6734 22.2115 12.7695L22.2203 26.5294C24.9837 26.3453 26.65 25.246 27.5721 23.6C28.7597 21.488 28.3483 18.9855 28.4212 16.3183L39.0927 16.229L39.1307 26.521C46.1195 26.2142 45.3229 20.1684 45.3229 16.2178C45.3229 10.8417 45.425 5.37619 45.3054 0.0111597C37.7037 0.730961 39.5042 7.145 39.0402 10.292L28.4592 10.3088L28.3921 0.00836978C25.7162 0.245514 25.2697 0.708642 23.7698 2.0506L14.8171 12.5826C13.1071 11.7261 7.41093 4.12909 5.50541 2.17893C4.19519 0.836978 2.98709 0.248303 0.684711 0C0.620513 1.45634 0.65553 2.91547 0.640939 4.37461C0.605922 7.60534 0.681794 6.13505 3.95298 10.0186L12.3542 19.3314C13.0808 20.2298 13.7811 20.785 14.4436 21.6359L14.4465 21.6415Z" fill="#2B7FFF"/>
<path fill-rule="evenodd" clip-rule="evenodd" d="M2.54014 19.7915C-0.777472 20.9488 0.442126 26.4394 4.63815 25.238C8.15437 24.2324 6.43318 18.431 2.54014 19.7915Z" fill="white"/>
</svg>
