<svg width="101" height="40" viewBox="0 0 101 40" fill="none" xmlns="http://www.w3.org/2000/svg">
<path d="M59.1487 7.364V20H56.0707V12.422L53.2447 20H50.7607L47.9167 12.404V20H44.8387V7.364H48.4747L52.0207 16.112L55.5307 7.364H59.1487ZM62.9101 8.912C62.3701 8.912 61.9261 8.756 61.5781 8.444C61.2421 8.12 61.0741 7.724 61.0741 7.256C61.0741 6.776 61.2421 6.38 61.5781 6.068C61.9261 5.744 62.3701 5.582 62.9101 5.582C63.4381 5.582 63.8701 5.744 64.2061 6.068C64.5541 6.38 64.7281 6.776 64.7281 7.256C64.7281 7.724 64.5541 8.12 64.2061 8.444C63.8701 8.756 63.4381 8.912 62.9101 8.912ZM64.4401 9.956V20H61.3621V9.956H64.4401ZM72.7907 9.848C73.9667 9.848 74.9027 10.232 75.5987 11C76.3067 11.756 76.6607 12.8 76.6607 14.132V20H73.6007V14.546C73.6007 13.874 73.4267 13.352 73.0787 12.98C72.7307 12.608 72.2627 12.422 71.6747 12.422C71.0867 12.422 70.6187 12.608 70.2707 12.98C69.9227 13.352 69.7487 13.874 69.7487 14.546V20H66.6707V9.956H69.7487V11.288C70.0607 10.844 70.4807 10.496 71.0087 10.244C71.5367 9.98 72.1307 9.848 72.7907 9.848ZM78.1876 14.96C78.1876 13.928 78.3796 13.022 78.7636 12.242C79.1596 11.462 79.6936 10.862 80.3656 10.442C81.0376 10.022 81.7876 9.812 82.6156 9.812C83.2756 9.812 83.8756 9.95 84.4156 10.226C84.9676 10.502 85.3996 10.874 85.7116 11.342V6.68H88.7896V20H85.7116V18.56C85.4236 19.04 85.0096 19.424 84.4696 19.712C83.9416 20 83.3236 20.144 82.6156 20.144C81.7876 20.144 81.0376 19.934 80.3656 19.514C79.6936 19.082 79.1596 18.476 78.7636 17.696C78.3796 16.904 78.1876 15.992 78.1876 14.96ZM85.7116 14.978C85.7116 14.21 85.4956 13.604 85.0636 13.16C84.6436 12.716 84.1276 12.494 83.5156 12.494C82.9036 12.494 82.3816 12.716 81.9496 13.16C81.5296 13.592 81.3196 14.192 81.3196 14.96C81.3196 15.728 81.5296 16.34 81.9496 16.796C82.3816 17.24 82.9036 17.462 83.5156 17.462C84.1276 17.462 84.6436 17.24 85.0636 16.796C85.4956 16.352 85.7116 15.746 85.7116 14.978ZM95.1024 20.144C94.2264 20.144 93.4464 19.994 92.7624 19.694C92.0784 19.394 91.5384 18.986 91.1424 18.47C90.7464 17.942 90.5244 17.354 90.4764 16.706H93.5184C93.5544 17.054 93.7164 17.336 94.0044 17.552C94.2924 17.768 94.6464 17.876 95.0664 17.876C95.4504 17.876 95.7444 17.804 95.9484 17.66C96.1644 17.504 96.2724 17.306 96.2724 17.066C96.2724 16.778 96.1224 16.568 95.8224 16.436C95.5224 16.292 95.0364 16.136 94.3644 15.968C93.6444 15.8 93.0444 15.626 92.5644 15.446C92.0844 15.254 91.6704 14.96 91.3224 14.564C90.9744 14.156 90.8004 13.61 90.8004 12.926C90.8004 12.35 90.9564 11.828 91.2684 11.36C91.5924 10.88 92.0604 10.502 92.6724 10.226C93.2964 9.95 94.0344 9.812 94.8864 9.812C96.1464 9.812 97.1364 10.124 97.8564 10.748C98.5884 11.372 99.0084 12.2 99.1164 13.232H96.2724C96.2244 12.884 96.0684 12.608 95.8044 12.404C95.5524 12.2 95.2164 12.098 94.7964 12.098C94.4364 12.098 94.1604 12.17 93.9684 12.314C93.7764 12.446 93.6804 12.632 93.6804 12.872C93.6804 13.16 93.8304 13.376 94.1304 13.52C94.4424 13.664 94.9224 13.808 95.5704 13.952C96.3144 14.144 96.9204 14.336 97.3884 14.528C97.8564 14.708 98.2644 15.008 98.6124 15.428C98.9724 15.836 99.1584 16.388 99.1704 17.084C99.1704 17.672 99.0024 18.2 98.6664 18.668C98.3424 19.124 97.8684 19.484 97.2444 19.748C96.6324 20.012 95.9184 20.144 95.1024 20.144Z" fill="#2B7FFF"/>
<path d="M53.584 22.816V34H52.464V28.768H46.4V34H45.28V22.816H46.4V27.84H52.464V22.816H53.584ZM63.7074 25.264V34H62.5874V32.464C62.3314 33.008 61.9367 33.424 61.4034 33.712C60.87 34 60.2727 34.144 59.6114 34.144C58.566 34.144 57.7127 33.824 57.0514 33.184C56.39 32.5333 56.0594 31.5947 56.0594 30.368V25.264H57.1634V30.24C57.1634 31.1893 57.398 31.9147 57.8674 32.416C58.3474 32.9173 58.998 33.168 59.8194 33.168C60.662 33.168 61.334 32.9013 61.8354 32.368C62.3367 31.8347 62.5874 31.0507 62.5874 30.016V25.264H63.7074ZM67.3684 27.2C67.6564 26.592 68.099 26.096 68.6964 25.712C69.3044 25.328 70.019 25.136 70.8404 25.136C71.6404 25.136 72.355 25.3227 72.9844 25.696C73.6137 26.0587 74.1044 26.5813 74.4564 27.264C74.819 27.936 75.0004 28.72 75.0004 29.616C75.0004 30.512 74.819 31.3013 74.4564 31.984C74.1044 32.6667 73.6084 33.1947 72.9684 33.568C72.339 33.9413 71.6297 34.128 70.8404 34.128C70.0084 34.128 69.2884 33.9413 68.6804 33.568C68.083 33.184 67.6457 32.688 67.3684 32.08V34H66.2644V22.16H67.3684V27.2ZM73.8644 29.616C73.8644 28.8907 73.7204 28.2667 73.4324 27.744C73.155 27.2107 72.771 26.8053 72.2804 26.528C71.7897 26.2507 71.235 26.112 70.6164 26.112C70.019 26.112 69.4697 26.256 68.9684 26.544C68.4777 26.832 68.0884 27.2427 67.8004 27.776C67.5124 28.3093 67.3684 28.928 67.3684 29.632C67.3684 30.336 67.5124 30.9547 67.8004 31.488C68.0884 32.0213 68.4777 32.432 68.9684 32.72C69.4697 33.008 70.019 33.152 70.6164 33.152C71.235 33.152 71.7897 33.0133 72.2804 32.736C72.771 32.448 73.155 32.0373 73.4324 31.504C73.7204 30.96 73.8644 30.3307 73.8644 29.616Z" fill="#FEFEFE"/>
<path fill-rule="evenodd" clip-rule="evenodd" d="M12.8214 29.6419C14.6006 27.8508 18.8587 21.6737 19.8986 20.7698L19.9066 34.53C22.4253 34.3459 23.9439 33.2466 24.7844 31.6005C25.8668 29.4885 25.4918 26.9859 25.5583 24.3186L35.2846 24.2294L35.3191 34.5216C41.6889 34.2147 40.9629 28.1688 40.9629 24.2182C40.9629 18.8419 41.056 13.3763 40.9469 8.01116C34.0186 8.73098 35.6596 15.1452 35.2367 18.2923L25.5929 18.309L25.5317 8.00837C23.0928 8.24552 22.6859 8.70866 21.3189 10.0506L13.1591 20.5828C11.6006 19.7263 6.409 12.1292 4.67227 10.179C3.47809 8.837 2.37701 8.24831 0.278561 8C0.22005 9.45637 0.251965 10.9155 0.238667 12.3747C0.206751 15.6055 0.275903 14.1352 3.25734 18.0188L10.9144 27.3318C11.5767 28.2302 12.215 28.7854 12.8187 29.6364L12.8214 29.6419Z" fill="#2B7FFF"/>
<path fill-rule="evenodd" clip-rule="evenodd" d="M1.98878 25.7978C-1.47672 27.1175 -0.202757 33.3782 4.18031 32.0083C7.85325 30.8616 6.05534 24.2466 1.98878 25.7978Z" fill="white"/>
</svg>
