<svg width="500" height="291" viewBox="0 0 500 291" fill="none" xmlns="http://www.w3.org/2000/svg">
<g clip-path="url(#clip0_403_578)">
<path d="M429.167 253.567H419.896V288.558H429.167V253.567Z" fill="#D6D6E3"/>
<path d="M366.921 212.769L358.975 218.813L356.326 227.879L458.303 268.679L462.277 252.057L366.921 212.769Z" fill="#D6D6E3"/>
<path d="M395.395 32.1936L358.975 218.813L462.276 252.057L492.075 9.52734L395.395 32.1936Z" fill="#F2F2F2"/>
<path d="M486.847 15.2481L392.79 36.4291C390.511 36.9423 388.475 34.7227 388.821 32.1017L389.259 28.7763C389.467 27.1965 390.513 25.9301 391.883 25.599L487.003 2.60291C489.542 1.98928 491.704 4.75273 490.884 7.56115L489.382 12.7016C489 14.0088 488.032 14.9813 486.847 15.2481Z" fill="#D6D6E3"/>
<path d="M391.828 94.6929L391.826 95.9854L440.075 96.0516L440.076 94.7592L391.828 94.6929Z" fill="#2B7FFF"/>
<path d="M458.6 64.9661L417.611 69.8311L417.729 71.1172L458.718 66.2522L458.6 64.9661Z" fill="#2B7FFF"/>
<path d="M290.091 126.172L275.653 182.484C273.735 189.962 278.293 197.571 285.095 198.251L300.85 199.824L290.091 126.172Z" fill="#2B7FFF"/>
<path opacity="0.1" d="M290.091 126.172L275.653 182.484C273.735 189.962 278.293 197.571 285.095 198.251L300.85 199.824L290.091 126.172Z" fill="black"/>
<path d="M403.721 100.852V95.0305C403.721 95.0305 438.134 92.4982 441.856 93.8686C441.856 93.8686 443.381 96.8179 435.643 97.2886C435.643 97.2886 411.565 101.424 403.721 100.852Z" fill="#090814"/>
<path d="M421.137 115.784L401.825 152.226L392.731 139.082L410.503 107.336C409.871 103.643 410.636 99.3556 412.895 95.6535C416.848 89.1758 423.862 86.9506 428.56 90.6833C433.259 94.4161 433.863 102.693 429.91 109.171C427.651 112.873 424.392 115.178 421.137 115.784Z" fill="#FFB6B6"/>
<path d="M300.735 204.126L298.416 213.126L298.495 222.251C298.495 222.251 283.241 243.184 288.86 288.461L360.333 287.438L351.819 214.582L300.735 204.126Z" fill="#090814"/>
<path d="M308.779 79.4149C308.779 66.6429 317.854 56.2891 329.048 56.2891C340.242 56.2891 349.316 66.6429 349.316 79.4149C349.316 89.773 343.347 98.5394 335.12 101.484L332.098 104.262L337.524 125.927L331.202 131.029L311.227 112.037C311.227 112.037 315.542 105.766 317.857 98.6943C312.387 94.5528 308.779 87.4659 308.779 79.4149Z" fill="#FFB6B6"/>
<path d="M406.483 114.627C399.328 114.502 386.099 140.704 386.099 140.704L375.233 136.319L352.884 127.292L335.756 119.249L335.832 119.84C335.764 119.654 335.691 119.467 335.61 119.278C333.81 115.045 328.579 110.064 313.729 111.051L306.737 117.348L305.786 118.211C305.786 118.211 301.374 117.775 296.978 119.776C293.797 121.235 290.617 123.957 289.112 129.044C288.333 131.668 288.333 137.093 288.801 143.986C290.492 168.943 298.376 221.997 298.376 221.997L348.145 214.48L351.816 214.578C351.816 214.578 352.253 208.859 352.643 201.37C352.884 196.977 353.103 191.987 353.227 187.184C353.313 183.662 353.336 180.247 353.282 177.241C353.274 177.054 353.274 176.867 353.266 176.68C353.118 171.193 352.635 167.217 351.598 166.782C351.598 166.782 354.817 166.684 359.463 166.488C370.688 166.008 390.254 164.931 393.045 163.197C396.989 160.751 417.669 127.924 417.669 127.924C417.669 127.924 413.647 114.76 406.483 114.627Z" fill="#2B7FFF"/>
<path d="M349.915 81.1227C348.384 72.5761 347.65 68.1983 342.084 62.1526C340.764 62.3659 342.433 70.1806 335.152 81.0665C324.568 96.891 325.623 82.3818 322.494 87.2565C321.814 88.3147 321.667 92.1329 321.891 93.4465C322.773 98.6368 327.994 93.5688 322.494 111.329C321.675 112.71 320.71 112.374 319.48 112.36C319.384 112.359 320.009 112.223 317.671 111.673C316.555 111.41 314.994 111.099 313.122 110.739C291.376 106.559 283.697 75.252 300.506 58.964C304.33 55.2581 308.083 52.4495 311.342 51.1481C321.156 47.2284 343.518 49.7761 347.811 62.4965C349.859 68.5643 350.543 74.7816 349.915 81.1227Z" fill="#010102"/>
<path d="M305.127 131.378C313.693 131.378 320.637 123.455 320.637 113.682C320.637 103.908 313.693 95.9854 305.127 95.9854C296.561 95.9854 289.617 103.908 289.617 113.682C289.617 123.455 296.561 131.378 305.127 131.378Z" fill="#010102"/>
<path d="M86.118 289.272H95.3887V251.051H86.118V289.272Z" fill="#D6D6E3"/>
<path d="M148.364 210.252L156.31 216.296L158.959 225.363L56.9819 266.162L53.0088 249.54L148.364 210.252Z" fill="#D6D6E3"/>
<path d="M119.89 29.677L156.31 216.296L53.0085 249.54L23.21 7.01074L119.89 29.677Z" fill="#F2F2F2"/>
<path d="M28.4378 12.7315L122.495 33.9125C124.774 34.4257 126.81 32.2061 126.464 29.5851L126.026 26.2597C125.818 24.6799 124.772 23.4135 123.402 23.0824L28.2819 0.0863082C25.7436 -0.527322 23.5809 2.23612 24.4013 5.04455L25.9031 10.185C26.285 11.4922 27.2529 12.4647 28.4378 12.7315Z" fill="#D6D6E3"/>
<path d="M100.868 79.0406C98.2838 79.0406 95.6936 77.7987 93.4212 75.4341C90.6762 72.5785 88.7182 68.4127 87.9076 63.7043C86.2224 53.9145 90.0868 44.7766 96.5221 43.334C99.672 42.6284 102.944 43.8388 105.736 46.7443C108.481 49.5999 110.439 53.7656 111.249 58.474C112.935 68.2638 109.07 77.4017 102.635 78.8444C102.049 78.9756 101.458 79.0406 100.868 79.0406ZM98.2827 44.4314C97.7663 44.4314 97.2514 44.4876 96.7406 44.6024C90.9179 45.9075 87.4544 54.3645 89.0194 63.4557C89.7832 67.8934 91.6176 71.8085 94.1845 74.4792C96.7047 77.1013 99.6267 78.2038 102.417 77.5759C108.239 76.2709 111.703 67.8139 110.138 58.7226C109.374 54.2849 107.54 50.3698 104.973 47.6991C102.914 45.5572 100.586 44.4314 98.2827 44.4314Z" fill="#2B7FFF"/>
<path d="M99.6873 60.1924L99.4707 61.4609L111.608 64.1588L111.824 62.8903L99.6873 60.1924Z" fill="#2B7FFF"/>
<path d="M148.287 69.0599V63.2385C148.287 63.2385 113.874 60.7062 110.152 62.0766C110.152 62.0766 108.627 65.0259 116.364 65.4966C116.364 65.4966 140.443 69.6322 148.287 69.0599Z" fill="#090814"/>
<path d="M141.549 70.633L163.417 108.257L148.257 112.248L129.636 78.4367C126.248 77.4546 122.993 74.6771 120.906 70.5298C117.254 63.2731 118.561 54.5954 123.825 51.1475C129.088 47.6996 136.315 50.7871 139.967 58.0439C142.053 62.1912 142.514 66.799 141.549 70.633Z" fill="#FFB6B6"/>
<path d="M250.186 76.2364C250.186 59.7272 238.456 46.3438 223.986 46.3438C209.517 46.3438 197.787 59.7272 197.787 76.2364C197.787 89.6254 205.503 100.957 216.137 104.763L220.043 108.354L213.031 136.358L221.202 142.953L247.022 118.404C247.022 118.404 241.444 110.298 238.452 101.157C245.522 95.8038 250.186 86.6432 250.186 76.2364Z" fill="#FFB6B6"/>
<path d="M176.143 233.296L206.963 204.984L211.843 221.84L184.051 246.111C183.507 250.052 181.383 254.006 177.956 256.759C171.959 261.576 164.265 260.891 160.771 255.229C157.277 249.566 159.306 241.071 165.302 236.254C168.73 233.501 172.708 232.553 176.143 233.296Z" fill="#FFB6B6"/>
<path d="M255.641 190.939L255.671 191.08L185.991 246.976L176.063 226.324L209.524 187.497L255.641 190.939Z" fill="#2B7FFF"/>
<path opacity="0.1" d="M255.641 190.939L255.671 191.08L185.991 246.976L176.063 226.324L209.524 187.497L255.641 190.939Z" fill="black"/>
<path d="M257.754 235.045L200.394 250.431L201.536 287.912H264.512L257.754 235.045Z" fill="#090814"/>
<path d="M241.105 107.48C241.105 107.48 230.595 109.658 219.312 117.369C208.029 125.08 199.31 159.447 199.31 159.447C199.31 159.447 190.029 240.752 200.247 250.2L257.754 235.045C257.754 235.045 265.244 228.369 268.358 205.196C271.35 182.937 259.612 105.77 241.105 107.48Z" fill="#2B7FFF"/>
<path d="M232.477 125.204L190.871 121.647L146.804 81.1738C146.804 81.1738 128.479 90.6198 130.239 95.6159C132 100.612 152.429 142.508 152.429 142.508C152.429 142.508 212.976 168.028 220.249 169.075C227.523 170.121 232.477 125.204 232.477 125.204Z" fill="#2B7FFF"/>
<path d="M234.001 98.2903L242.08 99.1386C242.365 100.99 252.983 85.1787 253.257 75.3791C253.322 73.0804 254.976 46.3309 232.477 40.1072C209.978 33.8836 192.173 52.9733 196.446 55.662C200.719 58.3507 212.442 60.1789 212.442 60.1789C212.442 60.1789 203.674 76.5075 214.624 81.8869C214.624 81.8869 215.074 89.9311 218.375 90.2669C221.675 90.6028 230.393 84.9989 232.126 91.6933L233.859 98.3877" fill="#090814"/>
<path d="M118.917 125.543L71.957 130.35L72.0582 131.637L119.018 126.831L118.917 125.543Z" fill="#2B7FFF"/>
<path d="M498.753 291H1.23001C0.49701 290.936 -0.0445724 290.209 0.0028954 289.372C-0.0445724 288.545 0.49701 287.818 1.23001 287.754H498.753C499.398 287.844 499.908 288.427 499.987 289.163C500.091 290.063 499.542 290.881 498.753 291Z" fill="#CCCCCC"/>
</g>
<defs>
<clipPath id="clip0_403_578">
<rect width="500" height="291" fill="white"/>
</clipPath>
</defs>
</svg>
