<svg width="40" height="52" viewBox="0 0 40 52" fill="none" xmlns="http://www.w3.org/2000/svg">
<path d="M37.1388 4.33769H32.3802V1.33794C32.3802 0.597445 31.9321 0 31.379 0C30.8278 0 30.3796 0.597438 30.3796 1.33794V4.33769H9.5209V1.33794C9.5209 0.597445 9.07279 0 8.5197 0C7.96848 0 7.52037 0.597438 7.52037 1.33794V4.33769H2.86115C1.28809 4.33769 0.0112317 6.0346 0 8.13822V11.5396C0.0337492 13.6231 1.30499 15.2899 2.86115 15.2874H3.18176V34.433H3.17989C3.16489 36.15 3.66736 37.8042 4.57482 39.0192C5.48228 40.2341 6.71786 40.9069 8.00034 40.8868H13.5802L12.4796 43.5652H10.479L10.4809 43.5627C10.2052 43.51 9.92398 43.6204 9.71399 43.8639C9.50399 44.1074 9.38212 44.4614 9.38212 44.8354C9.38212 45.2094 9.50399 45.5633 9.71399 45.8068C9.92398 46.0503 10.2052 46.1608 10.4809 46.1081H11.3808L9.65965 50.0968C9.53028 50.388 9.49278 50.7344 9.55653 51.0632C9.62028 51.3896 9.78152 51.6682 10.0009 51.8364C10.4584 52.1803 11.0378 51.9644 11.3002 51.3544L13.5801 46.0001H26.4198L28.6997 51.3544C28.8666 51.751 29.1797 51.997 29.519 51.997C29.6878 51.9945 29.8509 51.9418 29.999 51.8364C30.2184 51.6682 30.3796 51.3896 30.4434 51.0632C30.5071 50.7344 30.4696 50.388 30.3403 50.0968L28.621 46.0528H29.5209H29.5191C29.7947 46.108 30.0759 45.9976 30.2859 45.7541C30.4959 45.5106 30.6178 45.1541 30.6178 44.7826C30.6178 44.4086 30.4959 44.0547 30.2859 43.8087C30.0759 43.5652 29.7947 43.4572 29.5191 43.51H27.5185L26.4179 40.8315H31.9996C34.6283 40.8315 36.7601 37.9799 36.7601 34.4605V15.2873H37.0807H37.0789C37.8382 15.3098 38.5713 14.9258 39.1188 14.2229C39.6663 13.5201 39.9832 12.5561 40 11.5395V8.1381C39.9888 6.03454 38.7119 4.33769 37.1388 4.33769ZM25.3192 43.4296H14.6807L15.7814 40.7512H24.2205L25.3192 43.4296ZM34.9189 34.5132C34.9151 35.5375 34.602 36.5164 34.0545 37.2319C33.5052 37.9473 32.7645 38.3364 31.9996 38.3163H8.00031C6.42912 38.3163 5.15226 36.6169 5.14103 34.5132V15.2873H34.9189V34.5132ZM38.0988 11.5395C38.0988 11.8809 37.9975 12.2073 37.8175 12.4483C37.6375 12.6893 37.3938 12.8248 37.1388 12.8248H2.86108C2.36986 12.757 1.99859 12.1998 2.00047 11.5396V8.13818C2.01172 7.44036 2.43733 6.88057 2.96044 6.88057H37.1388C37.6619 6.88057 38.0894 7.44035 38.0988 8.13818L38.0988 11.5395ZM8.00031 32.2641V21.4198C8.00031 20.6794 8.44842 20.0819 8.99964 20.0819C9.55272 20.0819 10.0008 20.6793 10.0008 21.4198V31.0065H22.5405C23.0917 31.0065 23.5398 31.6039 23.5398 32.3444C23.5398 33.0849 23.0917 33.6823 22.5405 33.6823H8.87959C8.61897 33.6648 8.37522 33.4991 8.20838 33.2305C8.04151 32.9619 7.96655 32.6105 8.00031 32.2641ZM11.3602 27.9264V23.5887C11.3602 22.8482 11.8083 22.2508 12.3595 22.2508C12.9126 22.2508 13.3607 22.8482 13.3607 23.5887V27.9264C13.3607 28.6669 12.9126 29.2643 12.3595 29.2643C11.8083 29.2643 11.3602 28.6669 11.3602 27.9264ZM14.7407 27.9264V21.4198C14.8082 20.7873 15.2132 20.3204 15.6895 20.3204C16.1676 20.3204 16.5707 20.7873 16.6401 21.4198V27.9264C16.6795 28.2954 16.5988 28.6694 16.417 28.9531C16.2332 29.2342 15.9689 29.3974 15.6895 29.3974C15.412 29.3974 15.1458 29.2342 14.9639 28.9531C14.7821 28.6694 14.6995 28.2954 14.7407 27.9264ZM18.1213 27.9264V25.7575H18.1194C18.1194 25.017 18.5675 24.4196 19.1206 24.4196C19.6718 24.4196 20.1199 25.017 20.1199 25.7575V27.9264C20.1199 28.6669 19.6718 29.2643 19.1206 29.2643C18.5675 29.2643 18.1194 28.6669 18.1194 27.9264H18.1213ZM24.9404 25.9985C24.5767 25.499 24.5767 24.7033 24.9404 24.2037L27.7004 20.6441C27.8729 20.3956 28.1166 20.2551 28.3697 20.2551C28.6228 20.2551 28.8666 20.3956 29.039 20.6441L31.7783 24.3116H31.7802C31.9639 24.545 32.0689 24.8689 32.0689 25.2077C32.0689 25.5491 31.9639 25.873 31.7802 26.1064C31.6115 26.3524 31.3696 26.4904 31.1202 26.4804C30.8633 26.4954 30.614 26.3574 30.4396 26.1064L29.3203 24.6078V32.3719C29.3596 32.7409 29.2771 33.1149 29.0953 33.3961C28.9134 33.6798 28.649 33.8404 28.3697 33.8404C28.0903 33.8404 27.826 33.6798 27.6441 33.3961C27.4622 33.115 27.3797 32.741 27.4191 32.3719V24.6078L26.2998 26.1064C26.1198 26.3473 25.8742 26.4829 25.6191 26.4829C25.3641 26.4829 25.1204 26.3473 24.9404 26.1064L24.9404 25.9985Z" fill="#2B7FFF"/>
</svg>
