<svg width="40" height="52" viewBox="0 0 40 52" fill="none" xmlns="http://www.w3.org/2000/svg">
<path d="M20 0C15.6458 0 11.9375 2.71172 10.5729 6.5H6.66667C2.98958 6.5 0 9.41484 0 13V45.5C0 49.0852 2.98958 52 6.66667 52H33.3333C37.0104 52 40 49.0852 40 45.5V13C40 9.41484 37.0104 6.5 33.3333 6.5H29.4271C28.0625 2.71172 24.3542 0 20 0ZM20 6.5C20.8841 6.5 21.7319 6.84241 22.357 7.4519C22.9821 8.0614 23.3333 8.88805 23.3333 9.75C23.3333 10.612 22.9821 11.4386 22.357 12.0481C21.7319 12.6576 20.8841 13 20 13C19.1159 13 18.2681 12.6576 17.643 12.0481C17.0179 11.4386 16.6667 10.612 16.6667 9.75C16.6667 8.88805 17.0179 8.0614 17.643 7.4519C18.2681 6.84241 19.1159 6.5 20 6.5ZM11.6667 19.5H28.3333C29.25 19.5 30 20.2313 30 21.125C30 22.0187 29.25 22.75 28.3333 22.75H11.6667C10.75 22.75 10 22.0187 10 21.125C10 20.2313 10.75 19.5 11.6667 19.5Z" fill="#2B7FFF"/>
</svg>
