<svg width="144" height="164" viewBox="0 0 144 164" fill="none" xmlns="http://www.w3.org/2000/svg">
<g clip-path="url(#clip0_2249_2774)">
<g filter="url(#filter0_d_2249_2774)">
<circle cx="72" cy="62" r="50" fill="url(#paint0_linear_2249_2774)"/>
<circle cx="72" cy="62" r="49.5" stroke="#05FFB0"/>
</g>
<g filter="url(#filter1_i_2249_2774)">
<path d="M91.4594 40.4729C89.9116 40.0833 88.1244 40.3333 86.4418 41.0547C86.4562 40.0202 86.4519 39.01 86.4263 38.041H71.9997H57.5732C57.5476 39.01 57.5428 40.0202 57.5577 41.0547C55.875 40.3333 54.0884 40.0833 52.5401 40.4729C50.2511 41.0456 48.6969 42.8356 48.1641 45.5083C47.4681 48.9977 49.0004 52.9986 52.4782 56.775C55.2185 59.7499 58.8947 62.2249 62.7774 63.7539C64.3859 66.3338 66.4451 68.4125 69.0579 69.6764C68.6771 71.2594 67.34 75.8452 64.1091 78.6514H71.9997H79.8909C76.6594 75.8452 75.3229 71.2594 74.9421 69.6764C77.5549 68.4125 79.6146 66.3338 81.2226 63.7533C85.1047 62.2249 88.7815 59.7499 91.5218 56.775C94.9996 52.998 96.5319 48.9977 95.8359 45.5083C95.3025 42.8356 93.7484 41.0456 91.4594 40.4729ZM54.7934 54.0161C52.2782 51.2833 51.0223 48.4195 51.4345 46.3529C51.6767 45.1333 52.258 44.4489 53.2628 44.1965C54.5892 43.8634 56.3193 44.3694 57.7443 45.3724C58.0681 49.7464 58.8275 54.3147 60.2489 58.3678C58.2035 57.1579 56.3252 55.6799 54.7934 54.0161ZM89.206 54.0161C87.6743 55.6792 85.7959 57.1579 83.7506 58.3684C85.1725 54.3153 85.9319 49.747 86.2551 45.373C87.6802 44.3706 89.4103 43.8646 90.7367 44.1971C91.7415 44.4495 92.3228 45.1339 92.5649 46.3535C92.9772 48.4201 91.7212 51.2839 89.206 54.0161Z" fill="#2B7FFF"/>
<path d="M82.1328 81.0571H61.8662V86.041H82.1328V81.0571Z" fill="#2B7FFF"/>
</g>
<path d="M48.7585 133V124.273H50.6037V131.479H54.3452V133H48.7585ZM58.516 133.128C57.8427 133.128 57.2631 132.991 56.7773 132.719C56.2944 132.443 55.9222 132.054 55.6609 131.551C55.3995 131.045 55.2688 130.447 55.2688 129.757C55.2688 129.084 55.3995 128.493 55.6609 127.984C55.9222 127.476 56.2901 127.08 56.7646 126.795C57.2418 126.511 57.8015 126.369 58.4435 126.369C58.8754 126.369 59.2773 126.439 59.6495 126.578C60.0245 126.714 60.3512 126.92 60.6296 127.196C60.9109 127.472 61.1296 127.818 61.2859 128.236C61.4421 128.651 61.5202 129.136 61.5202 129.693V130.192H55.9933V129.067H59.8114C59.8114 128.805 59.7546 128.574 59.641 128.372C59.5273 128.17 59.3697 128.013 59.168 127.899C58.9691 127.783 58.7376 127.724 58.4734 127.724C58.1978 127.724 57.9535 127.788 57.7404 127.916C57.5302 128.041 57.3654 128.21 57.2461 128.423C57.1268 128.634 57.0657 128.868 57.0629 129.126V130.196C57.0629 130.52 57.1225 130.8 57.2418 131.036C57.364 131.271 57.5359 131.453 57.7575 131.581C57.979 131.709 58.2418 131.773 58.5458 131.773C58.7475 131.773 58.9322 131.744 59.0998 131.688C59.2674 131.631 59.4109 131.545 59.5302 131.432C59.6495 131.318 59.7404 131.179 59.8029 131.014L61.4819 131.125C61.3967 131.528 61.2219 131.881 60.9577 132.182C60.6964 132.48 60.3583 132.713 59.9435 132.881C59.5316 133.045 59.0558 133.128 58.516 133.128ZM68.6314 126.455L66.343 133H64.2976L62.0092 126.455H63.9268L65.2862 131.138H65.3544L66.7095 126.455H68.6314ZM72.3324 133.128C71.6591 133.128 71.0795 132.991 70.5938 132.719C70.1108 132.443 69.7386 132.054 69.4773 131.551C69.2159 131.045 69.0852 130.447 69.0852 129.757C69.0852 129.084 69.2159 128.493 69.4773 127.984C69.7386 127.476 70.1065 127.08 70.581 126.795C71.0582 126.511 71.6179 126.369 72.2599 126.369C72.6918 126.369 73.0938 126.439 73.4659 126.578C73.8409 126.714 74.1676 126.92 74.446 127.196C74.7273 127.472 74.946 127.818 75.1023 128.236C75.2585 128.651 75.3366 129.136 75.3366 129.693V130.192H69.8097V129.067H73.6278C73.6278 128.805 73.571 128.574 73.4574 128.372C73.3438 128.17 73.1861 128.013 72.9844 127.899C72.7855 127.783 72.554 127.724 72.2898 127.724C72.0142 127.724 71.7699 127.788 71.5568 127.916C71.3466 128.041 71.1818 128.21 71.0625 128.423C70.9432 128.634 70.8821 128.868 70.8793 129.126V130.196C70.8793 130.52 70.9389 130.8 71.0582 131.036C71.1804 131.271 71.3523 131.453 71.5739 131.581C71.7955 131.709 72.0582 131.773 72.3622 131.773C72.5639 131.773 72.7486 131.744 72.9162 131.688C73.0838 131.631 73.2273 131.545 73.3466 131.432C73.4659 131.318 73.5568 131.179 73.6193 131.014L75.2983 131.125C75.2131 131.528 75.0384 131.881 74.7741 132.182C74.5128 132.48 74.1747 132.713 73.7599 132.881C73.348 133.045 72.8722 133.128 72.3324 133.128ZM78.3366 124.273V133H76.5213V124.273H78.3366ZM85.7386 133.119C85.1364 133.119 84.5994 133.009 84.1278 132.787C83.6591 132.565 83.2869 132.26 83.0114 131.871C82.7358 131.482 82.5923 131.036 82.581 130.533H84.3707C84.3906 130.871 84.5327 131.145 84.7969 131.355C85.0611 131.565 85.375 131.67 85.7386 131.67C86.0284 131.67 86.2841 131.607 86.5057 131.479C86.7301 131.348 86.9048 131.168 87.0298 130.938C87.1577 130.705 87.2216 130.437 87.2216 130.136C87.2216 129.83 87.1563 129.56 87.0256 129.327C86.8977 129.094 86.7202 128.912 86.4929 128.781C86.2656 128.651 86.0057 128.584 85.7131 128.581C85.4574 128.581 85.2088 128.634 84.9673 128.739C84.7287 128.844 84.5426 128.987 84.4091 129.169L82.7685 128.875L83.1818 124.273H88.517V125.781H84.7031L84.4773 127.967H84.5284C84.6818 127.751 84.9134 127.572 85.223 127.43C85.5327 127.288 85.8793 127.217 86.2628 127.217C86.7884 127.217 87.2571 127.341 87.669 127.588C88.081 127.835 88.4062 128.175 88.6449 128.607C88.8835 129.036 89.0014 129.53 88.9986 130.089C89.0014 130.678 88.8651 131.2 88.5895 131.658C88.3168 132.112 87.9347 132.47 87.4432 132.732C86.9545 132.99 86.3864 133.119 85.7386 133.119ZM93.7074 133.192C92.9744 133.189 92.3438 133.009 91.8153 132.651C91.2898 132.293 90.8849 131.774 90.6009 131.095C90.3196 130.416 90.1804 129.599 90.1832 128.645C90.1832 127.693 90.3239 126.882 90.6051 126.212C90.8892 125.541 91.294 125.031 91.8196 124.682C92.348 124.33 92.9773 124.153 93.7074 124.153C94.4375 124.153 95.0653 124.33 95.5909 124.682C96.1193 125.034 96.5256 125.545 96.8097 126.216C97.0938 126.884 97.2344 127.693 97.2315 128.645C97.2315 129.602 97.0895 130.42 96.8054 131.099C96.5241 131.778 96.1207 132.297 95.5952 132.655C95.0696 133.013 94.4403 133.192 93.7074 133.192ZM93.7074 131.662C94.2074 131.662 94.6065 131.411 94.9048 130.908C95.2031 130.405 95.3509 129.651 95.348 128.645C95.348 127.983 95.2798 127.432 95.1435 126.991C95.0099 126.551 94.8196 126.22 94.5724 125.999C94.3281 125.777 94.0398 125.666 93.7074 125.666C93.2102 125.666 92.8125 125.915 92.5142 126.412C92.2159 126.909 92.0653 127.653 92.0625 128.645C92.0625 129.315 92.1293 129.875 92.2628 130.324C92.3991 130.77 92.5909 131.105 92.8381 131.33C93.0852 131.551 93.375 131.662 93.7074 131.662Z" fill="white"/>
</g>
<defs>
<filter id="filter0_d_2249_2774" x="10" y="-2" width="124" height="124" filterUnits="userSpaceOnUse" color-interpolation-filters="sRGB">
<feFlood flood-opacity="0" result="BackgroundImageFix"/>
<feColorMatrix in="SourceAlpha" type="matrix" values="0 0 0 0 0 0 0 0 0 0 0 0 0 0 0 0 0 0 127 0" result="hardAlpha"/>
<feOffset dy="-2"/>
<feGaussianBlur stdDeviation="6"/>
<feComposite in2="hardAlpha" operator="out"/>
<feColorMatrix type="matrix" values="0 0 0 0 0.0192308 0 0 0 0 1 0 0 0 0 0.689427 0 0 0 1 0"/>
<feBlend mode="normal" in2="BackgroundImageFix" result="effect1_dropShadow_2249_2774"/>
<feBlend mode="normal" in="SourceGraphic" in2="effect1_dropShadow_2249_2774" result="shape"/>
</filter>
<filter id="filter1_i_2249_2774" x="48" y="35.041" width="48" height="51" filterUnits="userSpaceOnUse" color-interpolation-filters="sRGB">
<feFlood flood-opacity="0" result="BackgroundImageFix"/>
<feBlend mode="normal" in="SourceGraphic" in2="BackgroundImageFix" result="shape"/>
<feColorMatrix in="SourceAlpha" type="matrix" values="0 0 0 0 0 0 0 0 0 0 0 0 0 0 0 0 0 0 127 0" result="hardAlpha"/>
<feOffset dy="-3"/>
<feGaussianBlur stdDeviation="2.5"/>
<feComposite in2="hardAlpha" operator="arithmetic" k2="-1" k3="1"/>
<feColorMatrix type="matrix" values="0 0 0 0 0 0 0 0 0 0 0 0 0 0 0 0 0 0 0.35 0"/>
<feBlend mode="normal" in2="shape" result="effect1_innerShadow_2249_2774"/>
</filter>
<linearGradient id="paint0_linear_2249_2774" x1="72" y1="12" x2="72" y2="112" gradientUnits="userSpaceOnUse">
<stop stop-color="#0BD2A4"/>
<stop offset="0.5" stop-color="#017F73"/>
<stop offset="1" stop-color="#024650"/>
</linearGradient>
<clipPath id="clip0_2249_2774">
<rect width="144" height="164" fill="white"/>
</clipPath>
</defs>
</svg>
