<svg width="163" height="164" viewBox="0 0 163 164" fill="none" xmlns="http://www.w3.org/2000/svg">
<g clip-path="url(#clip0_2231_2711)">
<g filter="url(#filter0_d_2231_2711)">
<circle cx="75" cy="62" r="50" fill="url(#paint0_linear_2231_2711)"/>
<circle cx="75" cy="62" r="49.5" stroke="#F2F2F2"/>
</g>
<g filter="url(#filter1_i_2231_2711)">
<path d="M94.4594 40.4319C92.9116 40.0423 91.1244 40.2923 89.4418 41.0137C89.4562 39.9792 89.4519 38.969 89.4263 38H74.9997H60.5732C60.5476 38.969 60.5428 39.9792 60.5577 41.0137C58.875 40.2923 57.0884 40.0423 55.5401 40.4319C53.2511 41.0046 51.6969 42.7945 51.1641 45.4673C50.4681 48.9567 52.0004 52.9576 55.4782 56.734C58.2185 59.7089 61.8947 62.1839 65.7774 63.7129C67.3859 66.2928 69.4451 68.3715 72.0579 69.6354C71.6771 71.2184 70.34 75.8042 67.1091 78.6104H74.9997H82.8909C79.6594 75.8042 78.3229 71.2184 77.9421 69.6354C80.5549 68.3715 82.6146 66.2928 84.2226 63.7123C88.1047 62.1839 91.7815 59.7089 94.5218 56.734C97.9996 52.957 99.5319 48.9567 98.8359 45.4673C98.3025 42.7945 96.7484 41.0046 94.4594 40.4319ZM57.7934 53.9751C55.2782 51.2423 54.0223 48.3785 54.4345 46.3119C54.6767 45.0923 55.258 44.4079 56.2628 44.1555C57.5892 43.8224 59.3193 44.3284 60.7443 45.3314C61.0681 49.7054 61.8275 54.2736 63.2489 58.3267C61.2035 57.1169 59.3252 55.6388 57.7934 53.9751ZM92.206 53.9751C90.6743 55.6382 88.7959 57.1169 86.7506 58.3273C88.1725 54.2743 88.9319 49.706 89.2551 45.332C90.6802 44.3296 92.4103 43.8236 93.7367 44.1561C94.7415 44.4085 95.3228 45.0929 95.5649 46.3125C95.9772 48.3791 94.7212 51.2429 92.206 53.9751Z" fill="#2B7FFF"/>
<path d="M85.1328 81.0161H64.8662V86H85.1328V81.0161Z" fill="#2B7FFF"/>
</g>
<path d="M51.7585 133V124.273H53.6037V131.479H57.3452V133H51.7585ZM61.516 133.128C60.8427 133.128 60.2631 132.991 59.7773 132.719C59.2944 132.443 58.9222 132.054 58.6609 131.551C58.3995 131.045 58.2688 130.447 58.2688 129.757C58.2688 129.084 58.3995 128.493 58.6609 127.984C58.9222 127.476 59.2901 127.08 59.7646 126.795C60.2418 126.511 60.8015 126.369 61.4435 126.369C61.8754 126.369 62.2773 126.439 62.6495 126.578C63.0245 126.714 63.3512 126.92 63.6296 127.196C63.9109 127.472 64.1296 127.818 64.2859 128.236C64.4421 128.651 64.5202 129.136 64.5202 129.693V130.192H58.9933V129.067H62.8114C62.8114 128.805 62.7546 128.574 62.641 128.372C62.5273 128.17 62.3697 128.013 62.168 127.899C61.9691 127.783 61.7376 127.724 61.4734 127.724C61.1978 127.724 60.9535 127.788 60.7404 127.916C60.5302 128.041 60.3654 128.21 60.2461 128.423C60.1268 128.634 60.0657 128.868 60.0629 129.126V130.196C60.0629 130.52 60.1225 130.8 60.2418 131.036C60.364 131.271 60.5359 131.453 60.7575 131.581C60.979 131.709 61.2418 131.773 61.5458 131.773C61.7475 131.773 61.9322 131.744 62.0998 131.688C62.2674 131.631 62.4109 131.545 62.5302 131.432C62.6495 131.318 62.7404 131.179 62.8029 131.014L64.4819 131.125C64.3967 131.528 64.2219 131.881 63.9577 132.182C63.6964 132.48 63.3583 132.713 62.9435 132.881C62.5316 133.045 62.0558 133.128 61.516 133.128ZM71.6314 126.455L69.343 133H67.2976L65.0092 126.455H66.9268L68.2862 131.138H68.3544L69.7095 126.455H71.6314ZM75.3324 133.128C74.6591 133.128 74.0795 132.991 73.5938 132.719C73.1108 132.443 72.7386 132.054 72.4773 131.551C72.2159 131.045 72.0852 130.447 72.0852 129.757C72.0852 129.084 72.2159 128.493 72.4773 127.984C72.7386 127.476 73.1065 127.08 73.581 126.795C74.0582 126.511 74.6179 126.369 75.2599 126.369C75.6918 126.369 76.0938 126.439 76.4659 126.578C76.8409 126.714 77.1676 126.92 77.446 127.196C77.7273 127.472 77.946 127.818 78.1023 128.236C78.2585 128.651 78.3366 129.136 78.3366 129.693V130.192H72.8097V129.067H76.6278C76.6278 128.805 76.571 128.574 76.4574 128.372C76.3438 128.17 76.1861 128.013 75.9844 127.899C75.7855 127.783 75.554 127.724 75.2898 127.724C75.0142 127.724 74.7699 127.788 74.5568 127.916C74.3466 128.041 74.1818 128.21 74.0625 128.423C73.9432 128.634 73.8821 128.868 73.8793 129.126V130.196C73.8793 130.52 73.9389 130.8 74.0582 131.036C74.1804 131.271 74.3523 131.453 74.5739 131.581C74.7955 131.709 75.0582 131.773 75.3622 131.773C75.5639 131.773 75.7486 131.744 75.9162 131.688C76.0838 131.631 76.2273 131.545 76.3466 131.432C76.4659 131.318 76.5568 131.179 76.6193 131.014L78.2983 131.125C78.2131 131.528 78.0384 131.881 77.7741 132.182C77.5128 132.48 77.1747 132.713 76.7599 132.881C76.348 133.045 75.8722 133.128 75.3324 133.128ZM81.3366 124.273V133H79.5213V124.273H81.3366ZM89.348 124.273V133H87.5028V126.024H87.4517L85.4531 127.277V125.641L87.6136 124.273H89.348ZM94.8441 133.192C94.1112 133.189 93.4805 133.009 92.9521 132.651C92.4265 132.293 92.0217 131.774 91.7376 131.095C91.4563 130.416 91.3171 129.599 91.32 128.645C91.32 127.693 91.4606 126.882 91.7418 126.212C92.0259 125.541 92.4308 125.031 92.9563 124.682C93.4847 124.33 94.114 124.153 94.8441 124.153C95.5742 124.153 96.2021 124.33 96.7276 124.682C97.256 125.034 97.6623 125.545 97.9464 126.216C98.2305 126.884 98.3711 127.693 98.3683 128.645C98.3683 129.602 98.2262 130.42 97.9421 131.099C97.6609 131.778 97.2575 132.297 96.7319 132.655C96.2063 133.013 95.5771 133.192 94.8441 133.192ZM94.8441 131.662C95.3441 131.662 95.7433 131.411 96.0415 130.908C96.3398 130.405 96.4876 129.651 96.4847 128.645C96.4847 127.983 96.4165 127.432 96.2802 126.991C96.1467 126.551 95.9563 126.22 95.7092 125.999C95.4648 125.777 95.1765 125.666 94.8441 125.666C94.3469 125.666 93.9492 125.915 93.6509 126.412C93.3526 126.909 93.2021 127.653 93.1992 128.645C93.1992 129.315 93.266 129.875 93.3995 130.324C93.5359 130.77 93.7276 131.105 93.9748 131.33C94.2219 131.551 94.5117 131.662 94.8441 131.662Z" fill="white"/>
</g>
<defs>
<filter id="filter0_d_2231_2711" x="13" y="-2" width="124" height="124" filterUnits="userSpaceOnUse" color-interpolation-filters="sRGB">
<feFlood flood-opacity="0" result="BackgroundImageFix"/>
<feColorMatrix in="SourceAlpha" type="matrix" values="0 0 0 0 0 0 0 0 0 0 0 0 0 0 0 0 0 0 127 0" result="hardAlpha"/>
<feOffset dy="-2"/>
<feGaussianBlur stdDeviation="6"/>
<feComposite in2="hardAlpha" operator="out"/>
<feColorMatrix type="matrix" values="0 0 0 0 0.947179 0 0 0 0 0.947179 0 0 0 0 0.947179 0 0 0 1 0"/>
<feBlend mode="normal" in2="BackgroundImageFix" result="effect1_dropShadow_2231_2711"/>
<feBlend mode="normal" in="SourceGraphic" in2="effect1_dropShadow_2231_2711" result="shape"/>
</filter>
<filter id="filter1_i_2231_2711" x="51" y="35" width="48" height="51" filterUnits="userSpaceOnUse" color-interpolation-filters="sRGB">
<feFlood flood-opacity="0" result="BackgroundImageFix"/>
<feBlend mode="normal" in="SourceGraphic" in2="BackgroundImageFix" result="shape"/>
<feColorMatrix in="SourceAlpha" type="matrix" values="0 0 0 0 0 0 0 0 0 0 0 0 0 0 0 0 0 0 127 0" result="hardAlpha"/>
<feOffset dy="-3"/>
<feGaussianBlur stdDeviation="2.5"/>
<feComposite in2="hardAlpha" operator="arithmetic" k2="-1" k3="1"/>
<feColorMatrix type="matrix" values="0 0 0 0 0 0 0 0 0 0 0 0 0 0 0 0 0 0 0.35 0"/>
<feBlend mode="normal" in2="shape" result="effect1_innerShadow_2231_2711"/>
</filter>
<linearGradient id="paint0_linear_2231_2711" x1="75" y1="12" x2="75" y2="112" gradientUnits="userSpaceOnUse">
<stop stop-color="#E6E6E6"/>
<stop offset="0.5" stop-color="#C0C0C0"/>
<stop offset="1" stop-color="#A9A9A9"/>
</linearGradient>
<clipPath id="clip0_2231_2711">
<rect width="163" height="164" fill="white"/>
</clipPath>
</defs>
</svg>
