<svg width="158" height="164" viewBox="0 0 158 164" fill="none" xmlns="http://www.w3.org/2000/svg">
<g clip-path="url(#clip0_2257_2496)">
<g filter="url(#filter0_d_2257_2496)">
<circle cx="75" cy="62" r="50" fill="url(#paint0_linear_2257_2496)"/>
<circle cx="75" cy="62" r="49.5" stroke="#FFFF84"/>
</g>
<path d="M48.7585 133V124.273H50.6037V131.479H54.3452V133H48.7585ZM58.516 133.128C57.8427 133.128 57.2631 132.991 56.7773 132.719C56.2944 132.443 55.9222 132.054 55.6609 131.551C55.3995 131.045 55.2688 130.447 55.2688 129.757C55.2688 129.084 55.3995 128.493 55.6609 127.984C55.9222 127.476 56.2901 127.08 56.7646 126.795C57.2418 126.511 57.8015 126.369 58.4435 126.369C58.8754 126.369 59.2773 126.439 59.6495 126.578C60.0245 126.714 60.3512 126.92 60.6296 127.196C60.9109 127.472 61.1296 127.818 61.2859 128.236C61.4421 128.651 61.5202 129.136 61.5202 129.693V130.192H55.9933V129.067H59.8114C59.8114 128.805 59.7546 128.574 59.641 128.372C59.5273 128.17 59.3697 128.013 59.168 127.899C58.9691 127.783 58.7376 127.724 58.4734 127.724C58.1978 127.724 57.9535 127.788 57.7404 127.916C57.5302 128.041 57.3654 128.21 57.2461 128.423C57.1268 128.634 57.0657 128.868 57.0629 129.126V130.196C57.0629 130.52 57.1225 130.8 57.2418 131.036C57.364 131.271 57.5359 131.453 57.7575 131.581C57.979 131.709 58.2418 131.773 58.5458 131.773C58.7475 131.773 58.9322 131.744 59.0998 131.688C59.2674 131.631 59.4109 131.545 59.5302 131.432C59.6495 131.318 59.7404 131.179 59.8029 131.014L61.4819 131.125C61.3967 131.528 61.2219 131.881 60.9577 132.182C60.6964 132.48 60.3583 132.713 59.9435 132.881C59.5316 133.045 59.0558 133.128 58.516 133.128ZM68.6314 126.455L66.343 133H64.2976L62.0092 126.455H63.9268L65.2862 131.138H65.3544L66.7095 126.455H68.6314ZM72.3324 133.128C71.6591 133.128 71.0795 132.991 70.5938 132.719C70.1108 132.443 69.7386 132.054 69.4773 131.551C69.2159 131.045 69.0852 130.447 69.0852 129.757C69.0852 129.084 69.2159 128.493 69.4773 127.984C69.7386 127.476 70.1065 127.08 70.581 126.795C71.0582 126.511 71.6179 126.369 72.2599 126.369C72.6918 126.369 73.0938 126.439 73.4659 126.578C73.8409 126.714 74.1676 126.92 74.446 127.196C74.7273 127.472 74.946 127.818 75.1023 128.236C75.2585 128.651 75.3366 129.136 75.3366 129.693V130.192H69.8097V129.067H73.6278C73.6278 128.805 73.571 128.574 73.4574 128.372C73.3438 128.17 73.1861 128.013 72.9844 127.899C72.7855 127.783 72.554 127.724 72.2898 127.724C72.0142 127.724 71.7699 127.788 71.5568 127.916C71.3466 128.041 71.1818 128.21 71.0625 128.423C70.9432 128.634 70.8821 128.868 70.8793 129.126V130.196C70.8793 130.52 70.9389 130.8 71.0582 131.036C71.1804 131.271 71.3523 131.453 71.5739 131.581C71.7955 131.709 72.0582 131.773 72.3622 131.773C72.5639 131.773 72.7486 131.744 72.9162 131.688C73.0838 131.631 73.2273 131.545 73.3466 131.432C73.4659 131.318 73.5568 131.179 73.6193 131.014L75.2983 131.125C75.2131 131.528 75.0384 131.881 74.7741 132.182C74.5128 132.48 74.1747 132.713 73.7599 132.881C73.348 133.045 72.8722 133.128 72.3324 133.128ZM78.3366 124.273V133H76.5213V124.273H78.3366ZM82.5511 133V131.67L85.6577 128.794C85.9219 128.538 86.1435 128.308 86.3224 128.104C86.5043 127.899 86.642 127.699 86.7358 127.503C86.8295 127.304 86.8764 127.089 86.8764 126.859C86.8764 126.604 86.8182 126.384 86.7017 126.199C86.5852 126.011 86.4261 125.868 86.2244 125.768C86.0227 125.666 85.794 125.615 85.5384 125.615C85.2713 125.615 85.0384 125.669 84.8395 125.777C84.6406 125.885 84.4872 126.04 84.3793 126.241C84.2713 126.443 84.2173 126.683 84.2173 126.962H82.4659C82.4659 126.391 82.5952 125.895 82.8537 125.474C83.1122 125.054 83.4744 124.729 83.9403 124.499C84.4063 124.268 84.9432 124.153 85.5511 124.153C86.1761 124.153 86.7202 124.264 87.1832 124.486C87.6491 124.705 88.0114 125.009 88.2699 125.398C88.5284 125.787 88.6577 126.233 88.6577 126.736C88.6577 127.065 88.5923 127.391 88.4616 127.712C88.3338 128.033 88.1051 128.389 87.7756 128.781C87.446 129.17 86.9815 129.638 86.3821 130.183L85.108 131.432V131.491H88.7727V133H82.5511ZM93.2972 133.119C92.695 133.119 92.158 133.009 91.6864 132.787C91.2177 132.565 90.8455 132.26 90.57 131.871C90.2944 131.482 90.1509 131.036 90.1396 130.533H91.9293C91.9492 130.871 92.0913 131.145 92.3555 131.355C92.6197 131.565 92.9336 131.67 93.2972 131.67C93.587 131.67 93.8427 131.607 94.0643 131.479C94.2887 131.348 94.4634 131.168 94.5884 130.938C94.7163 130.705 94.7802 130.437 94.7802 130.136C94.7802 129.83 94.7148 129.56 94.5842 129.327C94.4563 129.094 94.2788 128.912 94.0515 128.781C93.8242 128.651 93.5643 128.584 93.2717 128.581C93.016 128.581 92.7674 128.634 92.5259 128.739C92.2873 128.844 92.1012 128.987 91.9677 129.169L90.3271 128.875L90.7404 124.273H96.0756V125.781H92.2617L92.0359 127.967H92.087C92.2404 127.751 92.4719 127.572 92.7816 127.43C93.0913 127.288 93.4379 127.217 93.8214 127.217C94.3469 127.217 94.8157 127.341 95.2276 127.588C95.6396 127.835 95.9648 128.175 96.2035 128.607C96.4421 129.036 96.56 129.53 96.5572 130.089C96.56 130.678 96.4237 131.2 96.1481 131.658C95.8754 132.112 95.4933 132.47 95.0018 132.732C94.5131 132.99 93.945 133.119 93.2972 133.119Z" fill="white"/>
<g filter="url(#filter1_i_2257_2496)">
<path d="M94.4594 40.4319C92.9116 40.0423 91.1244 40.2923 89.4418 41.0137C89.4562 39.9792 89.4519 38.969 89.4263 38H74.9997H60.5732C60.5476 38.969 60.5428 39.9792 60.5577 41.0137C58.875 40.2923 57.0884 40.0423 55.5401 40.4319C53.2511 41.0046 51.6969 42.7945 51.1641 45.4673C50.4681 48.9567 52.0004 52.9576 55.4782 56.734C58.2185 59.7089 61.8947 62.1839 65.7774 63.7129C67.3859 66.2928 69.4451 68.3715 72.0579 69.6354C71.6771 71.2184 70.34 75.8042 67.1091 78.6104H74.9997H82.8909C79.6594 75.8042 78.3229 71.2184 77.9421 69.6354C80.5549 68.3715 82.6146 66.2928 84.2226 63.7123C88.1047 62.1839 91.7815 59.7089 94.5218 56.734C97.9996 52.957 99.5319 48.9567 98.8359 45.4673C98.3025 42.7945 96.7484 41.0046 94.4594 40.4319ZM57.7934 53.9751C55.2782 51.2423 54.0223 48.3785 54.4345 46.3119C54.6767 45.0923 55.258 44.4079 56.2628 44.1555C57.5892 43.8224 59.3193 44.3284 60.7443 45.3314C61.0681 49.7054 61.8275 54.2736 63.2489 58.3267C61.2035 57.1169 59.3252 55.6388 57.7934 53.9751ZM92.206 53.9751C90.6743 55.6382 88.7959 57.1169 86.7506 58.3273C88.1725 54.2743 88.9319 49.706 89.2551 45.332C90.6802 44.3296 92.4103 43.8236 93.7367 44.1561C94.7415 44.4085 95.3228 45.0929 95.5649 46.3125C95.9772 48.3791 94.7212 51.2429 92.206 53.9751Z" fill="#2B7FFF"/>
<path d="M85.1328 81.0161H64.8662V86H85.1328V81.0161Z" fill="#2B7FFF"/>
</g>
</g>
<defs>
<filter id="filter0_d_2257_2496" x="13" y="-2" width="124" height="124" filterUnits="userSpaceOnUse" color-interpolation-filters="sRGB">
<feFlood flood-opacity="0" result="BackgroundImageFix"/>
<feColorMatrix in="SourceAlpha" type="matrix" values="0 0 0 0 0 0 0 0 0 0 0 0 0 0 0 0 0 0 127 0" result="hardAlpha"/>
<feOffset dy="-2"/>
<feGaussianBlur stdDeviation="6"/>
<feComposite in2="hardAlpha" operator="out"/>
<feColorMatrix type="matrix" values="0 0 0 0 1 0 0 0 0 1 0 0 0 0 0.519231 0 0 0 1 0"/>
<feBlend mode="normal" in2="BackgroundImageFix" result="effect1_dropShadow_2257_2496"/>
<feBlend mode="normal" in="SourceGraphic" in2="effect1_dropShadow_2257_2496" result="shape"/>
</filter>
<filter id="filter1_i_2257_2496" x="51" y="35" width="48" height="51" filterUnits="userSpaceOnUse" color-interpolation-filters="sRGB">
<feFlood flood-opacity="0" result="BackgroundImageFix"/>
<feBlend mode="normal" in="SourceGraphic" in2="BackgroundImageFix" result="shape"/>
<feColorMatrix in="SourceAlpha" type="matrix" values="0 0 0 0 0 0 0 0 0 0 0 0 0 0 0 0 0 0 127 0" result="hardAlpha"/>
<feOffset dy="-3"/>
<feGaussianBlur stdDeviation="2.5"/>
<feComposite in2="hardAlpha" operator="arithmetic" k2="-1" k3="1"/>
<feColorMatrix type="matrix" values="0 0 0 0 0 0 0 0 0 0 0 0 0 0 0 0 0 0 0.35 0"/>
<feBlend mode="normal" in2="shape" result="effect1_innerShadow_2257_2496"/>
</filter>
<linearGradient id="paint0_linear_2257_2496" x1="75" y1="12" x2="75" y2="112" gradientUnits="userSpaceOnUse">
<stop stop-color="#FFE135"/>
<stop offset="0.5" stop-color="#FFD700"/>
<stop offset="1" stop-color="#B8860B"/>
</linearGradient>
<clipPath id="clip0_2257_2496">
<rect width="158" height="164" fill="white"/>
</clipPath>
</defs>
</svg>
