<svg width="143" height="164" viewBox="0 0 143 164" fill="none" xmlns="http://www.w3.org/2000/svg">
<g clip-path="url(#clip0_2249_2496)">
<g filter="url(#filter0_d_2249_2496)">
<circle cx="72" cy="62" r="50" fill="url(#paint0_linear_2249_2496)" fill-opacity="0.94902" shape-rendering="crispEdges"/>
<circle cx="72" cy="62" r="49.5" stroke="#8B4513" shape-rendering="crispEdges"/>
</g>
<g filter="url(#filter1_i_2249_2496)">
<path fill-rule="evenodd" clip-rule="evenodd" d="M79.0588 43.195C76.7936 42.9291 74.3596 42.4707 71.8379 41.7337C69.3772 41.0146 67.0658 40.5498 64.9412 40.2666V47.5637C57.1131 46.651 50.8241 47.993 50.8235 47.9931V55.6691C50.8241 55.669 56.3594 53.8343 64.9412 54.9902V62.374C67.2115 62.6358 69.6113 63.0855 72.0249 63.8099C74.5313 64.5621 76.8904 65.0436 79.0588 65.333V65.3173V57.9395C87.2143 58.898 93.1762 57.3421 93.1765 57.342H93.2278V49.7975L93.1765 49.824C93.1762 49.8241 87.5984 51.6862 79.0588 50.5445V43.195ZM48 54.608V86H50.8235V64.8471C54.7125 63.9321 62.3452 62.9376 72.0001 65.6876C86.1818 69.7267 96 65.6876 96 65.6876V39.8354C96 39.8354 86.185 43.9649 72.0001 39.8354C57.8154 35.7058 48 39.8354 48 39.8354V54.608ZM64.9412 47.6039V54.95C67.2039 55.2138 69.5952 55.666 72.0001 56.3934C74.5164 57.1543 76.8839 57.64 79.0588 57.9308V50.5531C76.7868 50.286 74.3444 49.8238 71.8131 49.0783C69.362 48.3564 67.0589 47.8891 64.9412 47.6039Z" fill="#2B7FFF"/>
</g>
<path d="M43.5043 123.273V132H41.6591V125.024H41.608L39.6094 126.277V124.641L41.7699 123.273H43.5043ZM51.0415 127.321L49.3796 127.423C49.3512 127.281 49.2901 127.153 49.1964 127.04C49.1026 126.923 48.979 126.831 48.8256 126.763C48.6751 126.692 48.4947 126.656 48.2844 126.656C48.0032 126.656 47.766 126.716 47.5728 126.835C47.3796 126.952 47.283 127.108 47.283 127.304C47.283 127.46 47.3455 127.592 47.4705 127.7C47.5955 127.808 47.81 127.895 48.114 127.96L49.2987 128.199C49.935 128.33 50.4094 128.54 50.7219 128.83C51.0344 129.119 51.1907 129.5 51.1907 129.972C51.1907 130.401 51.0643 130.777 50.8114 131.101C50.5614 131.425 50.2177 131.678 49.7802 131.859C49.3455 132.038 48.8441 132.128 48.2759 132.128C47.4094 132.128 46.7191 131.947 46.2049 131.587C45.6935 131.223 45.3938 130.729 45.3058 130.104L47.0913 130.01C47.1452 130.274 47.2759 130.476 47.4833 130.615C47.6907 130.751 47.9563 130.82 48.2802 130.82C48.5984 130.82 48.854 130.759 49.0472 130.636C49.2433 130.511 49.3427 130.351 49.3455 130.155C49.3427 129.99 49.2731 129.855 49.1367 129.75C49.0004 129.642 48.7901 129.56 48.506 129.503L47.3725 129.277C46.7333 129.149 46.2575 128.928 45.945 128.612C45.6353 128.297 45.4805 127.895 45.4805 127.406C45.4805 126.986 45.5941 126.624 45.8214 126.32C46.0515 126.016 46.3739 125.781 46.7887 125.616C47.2063 125.452 47.695 125.369 48.2546 125.369C49.0813 125.369 49.7319 125.544 50.2063 125.893C50.6836 126.243 50.962 126.719 51.0415 127.321ZM55.8153 125.455V126.818H51.8736V125.455H55.8153ZM52.7685 123.886H54.5838V129.989C54.5838 130.156 54.6094 130.287 54.6605 130.381C54.7116 130.472 54.7827 130.536 54.8736 130.572C54.9673 130.609 55.0753 130.628 55.1974 130.628C55.2827 130.628 55.3679 130.621 55.4531 130.607C55.5384 130.589 55.6037 130.577 55.6491 130.568L55.9347 131.919C55.8438 131.947 55.7159 131.98 55.5511 132.017C55.3864 132.057 55.1861 132.081 54.9503 132.089C54.5128 132.107 54.1293 132.048 53.7997 131.915C53.473 131.781 53.2188 131.574 53.0369 131.293C52.8551 131.011 52.7656 130.656 52.7685 130.227V123.886ZM59.8093 123.273H62.0849L64.4883 129.136H64.5906L66.994 123.273H69.2695V132H67.4798V126.32H67.4073L65.1488 131.957H63.93L61.6715 126.298H61.5991V132H59.8093V123.273ZM70.7557 132V125.455H72.571V132H70.7557ZM71.6676 124.611C71.3977 124.611 71.1662 124.521 70.973 124.342C70.7827 124.161 70.6875 123.943 70.6875 123.69C70.6875 123.44 70.7827 123.226 70.973 123.047C71.1662 122.865 71.3977 122.774 71.6676 122.774C71.9375 122.774 72.1676 122.865 72.358 123.047C72.5511 123.226 72.6477 123.44 72.6477 123.69C72.6477 123.943 72.5511 124.161 72.358 124.342C72.1676 124.521 71.9375 124.611 71.6676 124.611ZM79.4712 127.321L77.8093 127.423C77.7809 127.281 77.7198 127.153 77.6261 127.04C77.5323 126.923 77.4087 126.831 77.2553 126.763C77.1048 126.692 76.9244 126.656 76.7141 126.656C76.4329 126.656 76.1957 126.716 76.0025 126.835C75.8093 126.952 75.7127 127.108 75.7127 127.304C75.7127 127.46 75.7752 127.592 75.9002 127.7C76.0252 127.808 76.2397 127.895 76.5437 127.96L77.7283 128.199C78.3647 128.33 78.8391 128.54 79.1516 128.83C79.4641 129.119 79.6204 129.5 79.6204 129.972C79.6204 130.401 79.494 130.777 79.2411 131.101C78.9911 131.425 78.6474 131.678 78.2099 131.859C77.7752 132.038 77.2738 132.128 76.7056 132.128C75.8391 132.128 75.1488 131.947 74.6346 131.587C74.1232 131.223 73.8235 130.729 73.7354 130.104L75.521 130.01C75.5749 130.274 75.7056 130.476 75.913 130.615C76.1204 130.751 76.386 130.82 76.7099 130.82C77.0281 130.82 77.2837 130.759 77.4769 130.636C77.6729 130.511 77.7724 130.351 77.7752 130.155C77.7724 129.99 77.7028 129.855 77.5664 129.75C77.43 129.642 77.2198 129.56 76.9357 129.503L75.8022 129.277C75.163 129.149 74.6871 128.928 74.3746 128.612C74.065 128.297 73.9102 127.895 73.9102 127.406C73.9102 126.986 74.0238 126.624 74.2511 126.32C74.4812 126.016 74.8036 125.781 75.2184 125.616C75.636 125.452 76.1246 125.369 76.6843 125.369C77.511 125.369 78.1616 125.544 78.636 125.893C79.1133 126.243 79.3917 126.719 79.4712 127.321ZM86.2095 127.321L84.5476 127.423C84.5192 127.281 84.4581 127.153 84.3643 127.04C84.2706 126.923 84.147 126.831 83.9936 126.763C83.843 126.692 83.6626 126.656 83.4524 126.656C83.1712 126.656 82.9339 126.716 82.7408 126.835C82.5476 126.952 82.451 127.108 82.451 127.304C82.451 127.46 82.5135 127.592 82.6385 127.7C82.7635 127.808 82.978 127.895 83.282 127.96L84.4666 128.199C85.103 128.33 85.5774 128.54 85.8899 128.83C86.2024 129.119 86.3587 129.5 86.3587 129.972C86.3587 130.401 86.2322 130.777 85.9794 131.101C85.7294 131.425 85.3857 131.678 84.9482 131.859C84.5135 132.038 84.0121 132.128 83.4439 132.128C82.5774 132.128 81.8871 131.947 81.3729 131.587C80.8615 131.223 80.5618 130.729 80.4737 130.104L82.2592 130.01C82.3132 130.274 82.4439 130.476 82.6513 130.615C82.8587 130.751 83.1243 130.82 83.4482 130.82C83.7663 130.82 84.022 130.759 84.2152 130.636C84.4112 130.511 84.5107 130.351 84.5135 130.155C84.5107 129.99 84.4411 129.855 84.3047 129.75C84.1683 129.642 83.9581 129.56 83.674 129.503L82.5405 129.277C81.9013 129.149 81.4254 128.928 81.1129 128.612C80.8033 128.297 80.6484 127.895 80.6484 127.406C80.6484 126.986 80.7621 126.624 80.9893 126.32C81.2195 126.016 81.5419 125.781 81.9567 125.616C82.3743 125.452 82.8629 125.369 83.4226 125.369C84.2493 125.369 84.8999 125.544 85.3743 125.893C85.8516 126.243 86.13 126.719 86.2095 127.321ZM87.5018 132V125.455H89.3171V132H87.5018ZM88.4137 124.611C88.1438 124.611 87.9123 124.521 87.7191 124.342C87.5288 124.161 87.4336 123.943 87.4336 123.69C87.4336 123.44 87.5288 123.226 87.7191 123.047C87.9123 122.865 88.1438 122.774 88.4137 122.774C88.6836 122.774 88.9137 122.865 89.104 123.047C89.2972 123.226 89.3938 123.44 89.3938 123.69C89.3938 123.943 89.2972 124.161 89.104 124.342C88.9137 124.521 88.6836 124.611 88.4137 124.611ZM93.7287 132.128C93.0668 132.128 92.4943 131.987 92.0114 131.706C91.5313 131.422 91.1605 131.027 90.8991 130.521C90.6378 130.013 90.5071 129.423 90.5071 128.753C90.5071 128.077 90.6378 127.486 90.8991 126.98C91.1605 126.472 91.5313 126.077 92.0114 125.795C92.4943 125.511 93.0668 125.369 93.7287 125.369C94.3906 125.369 94.9616 125.511 95.4418 125.795C95.9247 126.077 96.2969 126.472 96.5582 126.98C96.8196 127.486 96.9503 128.077 96.9503 128.753C96.9503 129.423 96.8196 130.013 96.5582 130.521C96.2969 131.027 95.9247 131.422 95.4418 131.706C94.9616 131.987 94.3906 132.128 93.7287 132.128ZM93.7372 130.722C94.0384 130.722 94.2898 130.636 94.4915 130.466C94.6932 130.293 94.8452 130.057 94.9474 129.759C95.0526 129.46 95.1051 129.121 95.1051 128.74C95.1051 128.359 95.0526 128.02 94.9474 127.722C94.8452 127.423 94.6932 127.187 94.4915 127.014C94.2898 126.841 94.0384 126.754 93.7372 126.754C93.4332 126.754 93.1776 126.841 92.9702 127.014C92.7656 127.187 92.6108 127.423 92.5057 127.722C92.4034 128.02 92.3523 128.359 92.3523 128.74C92.3523 129.121 92.4034 129.46 92.5057 129.759C92.6108 130.057 92.7656 130.293 92.9702 130.466C93.1776 130.636 93.4332 130.722 93.7372 130.722ZM99.946 128.216V132H98.1307V125.455H99.8608V126.609H99.9375C100.082 126.229 100.325 125.928 100.666 125.706C101.007 125.482 101.42 125.369 101.906 125.369C102.361 125.369 102.757 125.469 103.095 125.668C103.433 125.866 103.696 126.151 103.884 126.52C104.071 126.886 104.165 127.324 104.165 127.832V132H102.349V128.156C102.352 127.756 102.25 127.443 102.043 127.219C101.835 126.991 101.55 126.878 101.186 126.878C100.942 126.878 100.726 126.93 100.538 127.036C100.354 127.141 100.209 127.294 100.104 127.496C100.001 127.695 99.9489 127.935 99.946 128.216Z" fill="white"/>
</g>
<defs>
<filter id="filter0_d_2249_2496" x="10" y="-2" width="124" height="124" filterUnits="userSpaceOnUse" color-interpolation-filters="sRGB">
<feFlood flood-opacity="0" result="BackgroundImageFix"/>
<feColorMatrix in="SourceAlpha" type="matrix" values="0 0 0 0 0 0 0 0 0 0 0 0 0 0 0 0 0 0 127 0" result="hardAlpha"/>
<feOffset dy="-2"/>
<feGaussianBlur stdDeviation="6"/>
<feComposite in2="hardAlpha" operator="out"/>
<feColorMatrix type="matrix" values="0 0 0 0 0.545098 0 0 0 0 0.270588 0 0 0 0 0.0745098 0 0 0 1 0"/>
<feBlend mode="normal" in2="BackgroundImageFix" result="effect1_dropShadow_2249_2496"/>
<feBlend mode="normal" in="SourceGraphic" in2="effect1_dropShadow_2249_2496" result="shape"/>
</filter>
<filter id="filter1_i_2249_2496" x="48" y="36" width="48" height="50" filterUnits="userSpaceOnUse" color-interpolation-filters="sRGB">
<feFlood flood-opacity="0" result="BackgroundImageFix"/>
<feBlend mode="normal" in="SourceGraphic" in2="BackgroundImageFix" result="shape"/>
<feColorMatrix in="SourceAlpha" type="matrix" values="0 0 0 0 0 0 0 0 0 0 0 0 0 0 0 0 0 0 127 0" result="hardAlpha"/>
<feOffset dy="-2"/>
<feGaussianBlur stdDeviation="2"/>
<feComposite in2="hardAlpha" operator="arithmetic" k2="-1" k3="1"/>
<feColorMatrix type="matrix" values="0 0 0 0 0 0 0 0 0 0 0 0 0 0 0 0 0 0 0.3 0"/>
<feBlend mode="normal" in2="shape" result="effect1_innerShadow_2249_2496"/>
</filter>
<linearGradient id="paint0_linear_2249_2496" x1="72" y1="12" x2="72" y2="112" gradientUnits="userSpaceOnUse">
<stop offset="0.3" stop-color="#CD7F32"/>
<stop offset="0.6" stop-color="#D88A3D"/>
</linearGradient>
<clipPath id="clip0_2249_2496">
<rect width="143" height="164" fill="white"/>
</clipPath>
</defs>
</svg>
